<?xml version="1.0" encoding="UTF-8"?>
<svg viewBox="0 0 64 64" xmlns="http://www.w3.org/2000/svg" role="img" aria-label="Big Lake logo">
  <defs>
    <linearGradient id="g1" x1="0" x2="1" y1="0" y2="1">
      <stop offset="0%" stop-color="#3aa0ff"/>
      <stop offset="100%" stop-color="#165a9e"/>
    </linearGradient>
  </defs>
  <rect width="100%" height="100%" fill="none" />
  <path d="M8 36c6-10 18-12 28-10 6 1 12 6 18 8-6 2-12 6-20 6-10 0-18-6-26-4z" fill="url(#g1)" opacity="0.95"/>
  <path d="M36 18c-6 2-10 8-16 10 6 2 10 8 16 10 6-2 10-8 16-10-6-2-10-8-16-10z" fill="#0b3a67"/>
  <circle cx="38" cy="22" r="2" fill="#aee8ff"/>
</svg>
